<?xml version="1.0" encoding="iso-8859-1"?>
<!-- Generator: Adobe Illustrator 19.0.0, SVG Export Plug-In . SVG Version: 6.00 Build 0)  -->
<svg version="1.1" id="Capa_1" xmlns="http://www.w3.org/2000/svg" xmlns:xlink="http://www.w3.org/1999/xlink" x="0px" y="0px"
	 viewBox="0 0 512 512" style="enable-background:new 0 0 512 512;" xml:space="preserve">
<path style="fill:#FFEE58;" d="M401,512H111c-8.284,0-15-6.716-15-15V316.502c0-4.704,2.207-9.136,5.96-11.97l145-109.502
	c5.35-4.041,12.729-4.041,18.079,0l145,109.502c3.754,2.834,5.96,7.266,5.96,11.97V497C416,505.284,409.284,512,401,512z"/>
<path style="fill:#FDD747;" d="M410.04,304.532l-145-109.502c-2.675-2.02-5.858-3.03-9.04-3.03v320h145c8.284,0,15-6.716,15-15
	V316.502C416,311.798,413.793,307.366,410.04,304.532z"/>
<g>
	<path style="fill:#FFA726;" d="M311,512H201V397c0-8.284,6.716-15,15-15h80c8.284,0,15,6.716,15,15V512z"/>
	<circle style="fill:#FFA726;" cx="256" cy="309" r="15"/>
</g>
<g>
	<path style="fill:#F0F4F7;" d="M355.422,71.22C328.698,44.639,293.39,30,256,30s-72.698,14.639-99.422,41.22
		c-5.873,5.844-15.371,5.817-21.213-0.057c-5.842-5.873-5.817-15.371,0.057-21.213C167.805,17.739,210.627,0,256,0
		s88.195,17.739,120.578,49.95c5.874,5.842,5.899,15.34,0.057,21.213C370.797,77.033,361.299,77.066,355.422,71.22z"/>
	<path style="fill:#F0F4F7;" d="M312.641,118.119C297.605,102.446,277.49,93.815,256,93.815s-41.605,8.631-56.641,24.304
		c-5.735,5.977-15.231,6.175-21.208,0.439c-5.978-5.735-6.175-15.23-0.44-21.209c20.747-21.625,48.55-33.534,78.289-33.534
		s57.542,11.909,78.289,33.534c5.735,5.979,5.538,15.474-0.44,21.209C327.874,124.291,318.378,124.099,312.641,118.119z"/>
	<path style="fill:#F0F4F7;" d="M268.904,164.104c-3.142-4.114-7.845-6.474-12.904-6.474s-9.762,2.359-12.904,6.474
		c-5.029,6.583-14.442,7.846-21.025,2.816c-6.584-5.028-7.845-14.441-2.817-21.025c8.865-11.607,22.258-18.265,36.746-18.265
		c14.488,0,27.881,6.657,36.746,18.265c5.028,6.584,3.767,15.997-2.817,21.025C283.352,171.946,273.935,170.693,268.904,164.104z"/>
</g>
<g>
	<path style="fill:#FA9319;" d="M311,397c0-8.284-6.716-15-15-15h-40v130h55V397z"/>
	<path style="fill:#FA9319;" d="M256,294v30c8.284,0,15-6.716,15-15S264.284,294,256,294z"/>
</g>
<g>
	<path style="fill:#C6D5DB;" d="M376.578,49.95C344.195,17.739,301.373,0,256,0v30c37.39,0,72.698,14.639,99.422,41.22
		c5.877,5.846,15.375,5.813,21.213-0.057C382.477,65.29,382.452,55.792,376.578,49.95z"/>
	<path style="fill:#C6D5DB;" d="M334.289,97.35C313.542,75.725,285.739,63.815,256,63.815v30c21.49,0,41.605,8.631,56.641,24.304
		c5.738,5.98,15.233,6.172,21.208,0.439C339.827,112.823,340.024,103.328,334.289,97.35z"/>
	<path style="fill:#C6D5DB;" d="M292.746,145.896c-8.865-11.607-22.258-18.265-36.746-18.265v30c5.059,0,9.762,2.359,12.904,6.474
		c5.031,6.588,14.448,7.842,21.025,2.816C296.513,161.893,297.774,152.479,292.746,145.896z"/>
</g>
<g>
</g>
<g>
</g>
<g>
</g>
<g>
</g>
<g>
</g>
<g>
</g>
<g>
</g>
<g>
</g>
<g>
</g>
<g>
</g>
<g>
</g>
<g>
</g>
<g>
</g>
<g>
</g>
<g>
</g>
</svg>
