<svg id="Capa_1" enable-background="new 0 0 512 512" height="512" viewBox="0 0 512 512" width="512" xmlns="http://www.w3.org/2000/svg"><g><g><path d="m481.355 179.433c-1.471 0-2.957-.429-4.263-1.322-3.445-2.358-4.324-7.061-1.966-10.505l20.717-30.253c1.025-1.492 1.084-2.115 1.025-5.766-.012-.689-.022-1.414-.022-2.184v-17.623h-6.245c-4.174 0-7.557-3.383-7.557-7.557s3.383-7.557 7.557-7.557l6.87-.002c3.675-.016 7.837-.027 11.098 3.223 2.989 2.977 3.391 6.916 3.391 10.376v19.139c0 .684.011 1.328.021 1.94.072 4.424.145 8.998-3.671 14.557l-20.711 30.246c-1.465 2.138-3.834 3.288-6.244 3.288z" fill="#9d9696"/></g><g><path d="m67.446 189.442c-1.472 0-2.96-.429-4.267-1.325-3.443-2.36-4.319-7.064-1.96-10.507l20.744-30.253c.996-1.465 1.054-2.088.995-5.747-.012-.694-.022-1.423-.022-2.199v-17.621h-6.246c-4.174 0-7.557-3.384-7.557-7.557s3.383-7.557 7.557-7.557l6.874-.002c3.663-.015 7.842-.027 11.099 3.219 2.984 2.973 3.386 6.916 3.386 10.38v19.139c0 .689.012 1.337.021 1.953.071 4.411.145 8.971-3.625 14.517l-20.761 30.278c-1.463 2.133-3.831 3.282-6.238 3.282z" fill="#9d9696"/></g><g><path d="m30.673 189.442c-2.409 0-4.775-1.148-6.24-3.284l-20.745-30.254c-3.814-5.555-3.74-10.13-3.668-14.554.01-.612.021-1.256.021-1.94v-19.139c0-3.46.402-7.399 3.391-10.376 3.262-3.251 7.428-3.241 11.099-3.223l6.869.002c4.174 0 7.557 3.383 7.557 7.557s-3.383 7.557-7.557 7.557h-6.245v17.621c0 .77-.011 1.495-.022 2.184-.059 3.652 0 4.274 1.019 5.759l20.748 30.257c2.36 3.442 1.483 8.146-1.96 10.506-1.306.897-2.795 1.327-4.267 1.327z" fill="#9d9696"/></g><g><path d="m444.554 179.433c-2.41 0-4.778-1.15-6.243-3.288l-20.716-30.253c-3.812-5.55-3.738-10.126-3.666-14.55.01-.612.021-1.256.021-1.94v-19.139c0-3.46.402-7.398 3.391-10.376 3.261-3.251 7.451-3.24 11.098-3.223l6.87.002c4.174 0 7.557 3.383 7.557 7.557s-3.383 7.557-7.557 7.557h-6.246v17.621c0 .77-.011 1.495-.022 2.184-.059 3.651 0 4.273 1.019 5.758l20.723 30.262c2.358 3.444 1.477 8.147-1.966 10.505-1.305.894-2.792 1.323-4.263 1.323z" fill="#9d9696"/></g><g><path d="m253.846 98.823c-4.174 0-7.557-3.383-7.557-7.557v-43.92c0-4.174 3.383-7.557 7.557-7.557s7.557 3.383 7.557 7.557v43.92c0 4.173-3.383 7.557-7.557 7.557z" fill="#9d9696"/></g><g><path d="m253.846 436.174c-4.174 0-7.557-3.384-7.557-7.557v-36.037c0-4.174 3.383-7.557 7.557-7.557s7.557 3.383 7.557 7.557v36.037c0 4.173-3.383 7.557-7.557 7.557z" fill="#5a5454"/></g><g><path d="m314.607 438.468h-43.36c-4.169 0-7.558 3.379-7.558 7.558 0 4.169 3.389 7.558 7.558 7.558h43.36c4.179 0 7.558-3.389 7.558-7.558 0-4.179-3.379-7.558-7.558-7.558zm-78.163 0h-43.39c-4.169 0-7.558 3.379-7.558 7.558 0 4.169 3.389 7.558 7.558 7.558h43.39c4.179 0 7.558-3.389 7.558-7.558.001-4.179-3.378-7.558-7.558-7.558z" fill="#5a5454"/></g><g><path clip-rule="evenodd" d="m358.734 200.455c0-72.812-52.43-109.19-104.887-109.19s-104.917 36.378-104.917 109.19l110.867 29.998z" fill="#eee1dc" fill-rule="evenodd"/></g><g><path clip-rule="evenodd" d="m115.12 247.154-35.397-35.414-19.696 3.629-6.15 22.201 46.308 46.33 20.688-10.774z" fill="#9d9696" fill-rule="evenodd"/></g><g><path clip-rule="evenodd" d="m148.93 244.602c-3.769-1.73-7.907-2.807-12.271-3.119-7.907-.539-15.389 1.616-21.539 5.671-8.814 5.784-14.907 15.509-15.672 26.851-.227 3.402.028 6.72.737 9.895 3.259 14.772 15.899 26.255 31.769 27.333 6.036.397 11.846-.766 16.976-3.147l13.15-29.885z" fill="#fdb440" fill-rule="evenodd"/></g><g><path clip-rule="evenodd" d="m358.734 200.455h-209.804v44.147 63.484 49.562l104.916 17.465 104.888-17.465v-49.562-63.484z" fill="#cdbeb9" fill-rule="evenodd"/></g><g><path clip-rule="evenodd" d="m408.216 274.005c-.85-12.844-8.53-23.562-19.243-28.921-5.385-2.694-11.534-4.026-17.968-3.601-4.364.312-8.502 1.389-12.271 3.119l-15.729 32.89 15.729 30.594c5.158 2.382 10.939 3.544 17.004 3.147 18.081-1.248 32.025-16.048 32.563-33.826.028-1.134 0-2.268-.085-3.402z" fill="#fdb440" fill-rule="evenodd"/></g><g><path clip-rule="evenodd" d="m458.123 227.561-3.146-20.783-22.672-5.075-43.332 43.381.68 16.955 18.648 15.368z" fill="#9d9696" fill-rule="evenodd"/></g><g><path clip-rule="evenodd" d="m494.002 196.883c0-10.264-4.988-19.365-12.64-25.008-5.158-3.799-11.506-6.039-18.393-6.039s-13.263 2.24-18.421 6.039c-7.652 5.642-12.611 14.744-12.611 25.008 0 1.645.113 3.261.368 4.82 2.069 13.298 12.555 23.789 25.818 25.858 1.587.227 3.202.369 4.846.369 17.118 0 31.033-13.893 31.033-31.047z" fill="#fdb440" fill-rule="evenodd"/></g><g><path clip-rule="evenodd" d="m271.247 29.965c0-9.612-7.794-17.409-17.401-17.409s-17.401 7.797-17.401 17.409 7.794 17.381 17.401 17.381 17.401-7.769 17.401-17.381z" fill="#fd8087" fill-rule="evenodd"/></g><g><path clip-rule="evenodd" d="m193.055 406.925v78.172c0 7.878-6.429 14.347-14.337 14.347h-70.084c-7.878 0-14.347-6.468-14.347-14.347v-78.172c0-7.878 6.468-14.347 14.347-14.347h29.813l21.645-14.917 18.626 14.917c7.908.001 14.337 6.469 14.337 14.347z" fill="#9d9696" fill-rule="evenodd"/></g><g><path clip-rule="evenodd" d="m413.374 406.925v78.172c0 7.878-6.458 14.347-14.337 14.347h-70.094c-7.878 0-14.337-6.468-14.337-14.347v-78.172c0-7.878 6.459-14.347 14.337-14.347l17.656-5.529 22.625 5.529h29.813c7.878.001 14.337 6.469 14.337 14.347z" fill="#9d9696" fill-rule="evenodd"/></g><g><path clip-rule="evenodd" d="m271.247 446.026c0-9.612-7.794-17.409-17.401-17.409s-17.401 7.797-17.401 17.409 7.794 17.381 17.401 17.381 17.401-7.769 17.401-17.381z" fill="#9d9696" fill-rule="evenodd"/></g><g><path clip-rule="evenodd" d="m358.734 200.455c0-72.812-52.43-109.19-104.887-109.19-4.081 0-8.134.199-12.158.652 48.093 5.189 92.758 41.368 92.758 108.538z" fill="#cdbeb9" fill-rule="evenodd"/></g><g><path clip-rule="evenodd" d="m358.734 244.602v-44.147h-24.288v44.147 63.484 49.562h24.288v-49.562z" fill="#9d9696" fill-rule="evenodd"/></g><g><path clip-rule="evenodd" d="m408.216 274.005c-.85-12.844-8.53-23.562-19.243-28.921-5.385-2.694-11.534-4.026-17.968-3.601-3.968.284-7.765 1.191-11.223 2.665 3.939.51 7.737 1.673 11.194 3.402 3.344 1.673 6.377 3.884 9.012 6.493 5.81 5.784 9.636 13.61 10.231 22.428.085 1.163.113 2.297.057 3.431-.028.992-.085 2.013-.198 3.005-1.474 12.561-9.664 23.278-21.085 28.127 2.182.284 4.449.34 6.745.198 18.081-1.248 32.025-16.048 32.563-33.826.028-1.133 0-2.267-.085-3.401z" fill="#fe9737" fill-rule="evenodd"/></g><g><path clip-rule="evenodd" d="m67.452 181.884c-5.158-3.799-11.506-6.039-18.393-6.039s-13.263 2.24-18.393 6.039c-7.68 5.671-12.64 14.744-12.64 25.008 0 17.154 13.887 31.047 31.033 31.047 1.644 0 3.259-.113 4.818-.369 13.263-2.07 23.749-12.561 25.846-25.83.227-1.588.368-3.204.368-4.848.001-10.264-4.987-19.338-12.639-25.008z" fill="#fdb440" fill-rule="evenodd"/></g><g><path clip-rule="evenodd" d="m148.93 308.086v-63.484c-3.769-1.73-7.907-2.807-12.271-3.119-2.239-.142-4.449-.085-6.575.17v20.471 22.655 26.255c.595.085 1.219.142 1.87.198 6.037.398 11.847-.765 16.976-3.146z" fill="#fe9737" fill-rule="evenodd"/></g><g><path clip-rule="evenodd" d="m494.002 196.883c0-10.264-4.988-19.365-12.64-25.008-5.158-3.799-11.506-6.039-18.393-6.039-3.741 0-7.312.652-10.628 1.871 2.834 1.021 5.441 2.438 7.794 4.168 7.68 5.642 12.64 14.744 12.64 25.008 0 2.977-.425 5.869-1.219 8.62-2.211 7.684-7.283 14.12-14.028 18.118-1.644.964-3.372 1.786-5.186 2.438 1.87.681 3.798 1.191 5.781 1.503 1.587.227 3.202.369 4.846.369 17.118-.001 31.033-13.894 31.033-31.048z" fill="#fe9737" fill-rule="evenodd"/></g><g><path clip-rule="evenodd" d="m80.092 206.892c0-10.264-4.988-19.337-12.64-25.008-5.158-3.799-11.506-6.039-18.393-6.039-3.741 0-7.312.652-10.599 1.871 2.806 1.021 5.413 2.438 7.794 4.168 7.652 5.671 12.611 14.744 12.611 25.008 0 3.005-.425 5.869-1.19 8.62-2.211 7.684-7.312 14.148-14.057 18.118-1.615.964-3.372 1.786-5.158 2.438 1.842.681 3.769 1.191 5.753 1.503 1.587.255 3.202.369 4.846.369 17.118-.001 31.033-13.895 31.033-31.048z" fill="#fe9737" fill-rule="evenodd"/></g><g><path clip-rule="evenodd" d="m413.374 406.925v78.172c0 7.878-6.458 14.347-14.337 14.347h-29.813c7.878 0 14.337-6.468 14.337-14.347v-78.172c0-7.878-6.459-14.347-14.337-14.347h29.813c7.878.001 14.337 6.469 14.337 14.347z" fill="#746e6e" fill-rule="evenodd"/></g><g><path clip-rule="evenodd" d="m193.056 406.926c0-7.882-6.433-14.347-14.34-14.347h-29.786c7.879 0 14.34 6.465 14.34 14.347v78.171c0 7.882-6.462 14.347-14.34 14.347h29.786c7.907 0 14.34-6.465 14.34-14.347 0-26.057 0-52.114 0-78.171z" fill="#746e6e" fill-rule="evenodd"/></g><g><path clip-rule="evenodd" d="m358.734 357.648h-209.804-10.486c-8.474 0-15.417 6.947-15.417 15.424v4.083c0 8.478 6.943 15.424 15.417 15.424h40.272 75.13 75.102 40.272c8.474 0 15.417-6.947 15.417-15.424v-4.083c0-8.478-6.943-15.424-15.417-15.424z" fill="#fdb440" fill-rule="evenodd"/></g><g><path clip-rule="evenodd" d="m384.637 373.072c0-8.478-6.943-15.424-15.417-15.424h-10.486-13.802c6.036 0 11.279 3.516 13.802 8.62 1.02 2.041 1.615 4.366 1.615 6.805v4.083c0 8.478-6.943 15.424-15.417 15.424h24.288c8.474 0 15.417-6.947 15.417-15.424z" fill="#fe9737" fill-rule="evenodd"/></g><g><path clip-rule="evenodd" d="m271.247 29.965c0-9.612-7.794-17.409-17.401-17.409-2.579 0-4.988.539-7.17 1.531 6.008 2.75 10.203 8.818 10.203 15.878 0 3.629-1.105 7.032-3.032 9.839-1.785 2.609-4.279 4.678-7.17 6.011 2.182.992 4.591 1.531 7.17 1.531 9.606 0 17.4-7.769 17.4-17.381z" fill="#fd4755" fill-rule="evenodd"/></g><g><path clip-rule="evenodd" d="m301.968 262.408h-96.272c-4.421 0-8.02 3.601-8.02 8.024v37.228c0 4.423 3.599 8.052 8.02 8.052h96.272c4.421 0 8.049-3.629 8.049-8.052v-37.228c0-4.423-3.628-8.024-8.049-8.024z" fill="#60b7ff" fill-rule="evenodd"/></g><g><path clip-rule="evenodd" d="m306.616 155.004c0-9.612-7.765-17.409-17.373-17.409-9.636 0-17.401 7.797-17.401 17.409s7.765 17.409 17.401 17.409c9.608.001 17.373-7.797 17.373-17.409z" fill="#60b7ff" fill-rule="evenodd"/></g><g><path clip-rule="evenodd" d="m235.935 155.004c0-9.612-7.794-17.409-17.401-17.409s-17.401 7.797-17.401 17.409 7.794 17.409 17.401 17.409 17.401-7.797 17.401-17.409z" fill="#60b7ff" fill-rule="evenodd"/></g><g><path clip-rule="evenodd" d="m301.968 262.408h-96.272c-4.421 0-8.02 3.601-8.02 8.024v18.628c0-4.423 3.599-8.052 8.02-8.052h96.272c4.421 0 8.049 3.629 8.049 8.052v-18.628c0-4.423-3.628-8.024-8.049-8.024z" fill="#22a6fe" fill-rule="evenodd"/></g><g><path clip-rule="evenodd" d="m235.935 155.004c0-9.612-7.794-17.409-17.401-17.409-2.494 0-4.846.51-6.972 1.446 6.122 2.694 10.401 8.818 10.401 15.963 0 7.117-4.279 13.241-10.401 15.935 2.126.936 4.478 1.474 6.972 1.474 9.607.001 17.401-7.797 17.401-17.409z" fill="#22a6fe" fill-rule="evenodd"/></g><g><path clip-rule="evenodd" d="m306.616 155.004c0-9.612-7.765-17.409-17.373-17.409-2.494 0-4.875.51-7 1.446 6.122 2.694 10.401 8.818 10.401 15.963 0 7.117-4.279 13.241-10.401 15.935 2.126.936 4.506 1.474 7 1.474 9.608.001 17.373-7.797 17.373-17.409z" fill="#22a6fe" fill-rule="evenodd"/></g><g><path d="m123.39 464.772c0 4.169-3.389 7.548-7.558 7.548h-21.545v-15.107h21.545c4.169.001 7.558 3.38 7.558 7.559z" fill="#5a5454"/></g><g><path d="m123.39 424.421c0 4.169-3.389 7.558-7.558 7.558h-21.545v-15.117h21.545c4.169.001 7.558 3.38 7.558 7.559z" fill="#5a5454"/></g><g><path d="m193.055 457.214v15.107h-21.505c-4.179 0-7.558-3.379-7.558-7.548 0-4.179 3.379-7.558 7.558-7.558h21.505z" fill="#5a5454"/></g><g><path d="m193.055 416.863v15.117h-21.505c-4.179 0-7.558-3.389-7.558-7.558 0-4.179 3.379-7.558 7.558-7.558h21.505z" fill="#5a5454"/></g><g><path d="m343.68 464.772c0 4.169-3.389 7.548-7.558 7.548h-21.515v-15.107h21.515c4.169.001 7.558 3.38 7.558 7.559z" fill="#5a5454"/></g><g><path d="m343.68 424.421c0 4.169-3.389 7.558-7.558 7.558h-21.515v-15.117h21.515c4.169.001 7.558 3.38 7.558 7.559z" fill="#5a5454"/></g><g><path d="m413.374 457.214v15.107h-21.515c-4.169 0-7.548-3.379-7.548-7.548 0-4.179 3.379-7.558 7.548-7.558h21.515z" fill="#5a5454"/></g><g><path d="m413.374 416.863v15.117h-21.515c-4.169 0-7.548-3.389-7.548-7.558 0-4.179 3.379-7.558 7.548-7.558h21.515z" fill="#5a5454"/></g></g></svg>